Nick Fury of S.H.I.E.L.D. brings together a team of super humans to form The Avengers to help save the Earth from Loki and his army.

General

Complete name : The Avengers 2012 [Dual Audio] [Eng-Hindi] CamRip [Exclusive]~~~[CooL GuY] {{a2zRG}}
Format : MPEG-4
Format profile : Base Media / Version 2
Codec ID : mp42
File size : 707 MiB
Duration : 2h 10mn
Overall bit rate mode : Variable
Overall bit rate : 756 Kbps
Encoded date : UTC 2012-04-30 19:14:02
Tagged date : UTC 2012-04-30 20:12:31
Writing application : HandBrake 0.9.5 2011010300

Video
ID : 1
Format : AVC
Format/Info : Advanced Video Codec
Format profile : Main@L3.0
Format settings, CABAC : Yes
Format settings, ReFrames : 4 frames
Codec ID : avc1
Codec ID/Info : Advanced Video Coding
Duration : 2h 10mn
Bit rate mode : Variable
Bit rate : 428 Kbps
Width : 672 pixels
Height : 352 pixels
Display aspect ratio : 1.909
Frame rate mode : Variable
Frame rate : 29.970 fps
Minimum frame rate : 29.412 fps
Maximum frame rate : 30.303 fps
Color space : YUV
Chroma subsampling : 4:2:0
Bit depth : 8 bits
Scan type : Progressive
Bits/(Pixel*Frame) : 0.060
Stream size : 400 MiB (57%)
Writing library : x264 core 112


Audio #1

ID : 2
Format : AAC
Format/Info : Advanced Audio Codec
Format profile : LC
Codec ID : 40
Duration : 2h 10mn
Bit rate mode : Variable
Bit rate : 160 Kbps
Maximum bit rate : 251 Kbps
Channel(s) : 2 channels
Channel positions : Front: L R
Sampling rate : 44.1 KHz
Compression mode : Lossy
Delay relative to video : -67ms
Stream size : 150 MiB (21%)
Language : Hindi
Encoded date : UTC 2012-04-30 19:14:02
Tagged date : UTC 2012-04-30 20:12:31

Audio #2

ID : 3
Format : AAC
Format/Info : Advanced Audio Codec
Format profile : LC
Codec ID : 40
Duration : 2h 10mn
Bit rate mode : Variable
Bit rate : 160 Kbps
Maximum bit rate : 203 Kbps
Channel(s) : 2 channels
Channel positions : Front: L R
Sampling rate : 44.1 KHz
Compression mode : Lossy
Delay relative to video : -67ms
Stream size : 150 MiB (21%)
Language : English
Encoded date : UTC 2012-04-30 19:14:02
Tagged date : UTC 2012-04-30 20:12:31